<svg width="49" height="50" viewBox="0 0 49 50" fill="none" xmlns="http://www.w3.org/2000/svg">
<rect x="0.0196533" y="0.838867" width="48.743" height="48.743" rx="24.3715" fill="#0D1B39"/>
<path d="M34.1343 25.2102C34.1343 24.4411 33.5108 23.8176 32.7416 23.8176H25.7784V16.8543C25.7784 16.0851 25.1548 15.4616 24.3857 15.4616C23.6165 15.4616 22.993 16.0851 22.993 16.8543V23.8176H16.0297C15.2606 23.8176 14.6371 24.4411 14.6371 25.2102C14.6371 25.9794 15.2606 26.6029 16.0297 26.6029H22.993V33.5662C22.993 34.3353 23.6165 34.9588 24.3857 34.9588C25.1548 34.9588 25.7784 34.3353 25.7784 33.5662V26.6029H32.7416C33.5108 26.6029 34.1343 25.9794 34.1343 25.2102Z" fill="white"/>
</svg>
