<svg width="19" height="19" viewBox="0 0 19 19" fill="none" xmlns="http://www.w3.org/2000/svg">
<path d="M14.1435 10.9081C13.9462 11.0993 13.8556 11.3758 13.9005 11.6469L14.5776 15.3941C14.6347 15.7117 14.5007 16.0331 14.2349 16.2166C13.9744 16.407 13.6279 16.4299 13.3438 16.2775L9.97064 14.5182C9.85335 14.4557 9.72311 14.4222 9.58983 14.4184H9.38344C9.31185 14.4291 9.24178 14.4519 9.1778 14.487L5.80387 16.2547C5.63708 16.3385 5.4482 16.3682 5.26313 16.3385C4.81226 16.2532 4.51142 15.8236 4.5853 15.3705L5.26313 11.6233C5.30807 11.3499 5.21743 11.0719 5.02018 10.8777L2.27001 8.21201C2.04 7.98886 1.96003 7.65375 2.06513 7.35138C2.16719 7.04978 2.42766 6.82968 2.7422 6.78017L6.5274 6.23105C6.81529 6.20134 7.06814 6.02617 7.19762 5.76722L8.86554 2.34756C8.90515 2.2714 8.95617 2.20133 9.01786 2.14192L9.08641 2.08861C9.1222 2.04901 9.16333 2.01626 9.20903 1.9896L9.29204 1.95914L9.42152 1.90582H9.74215C10.0285 1.93553 10.2806 2.10689 10.4124 2.36279L12.1024 5.76722C12.2242 6.01627 12.4611 6.18916 12.7345 6.23105L16.5197 6.78017C16.8396 6.82587 17.1069 7.04674 17.2128 7.35138C17.3126 7.65679 17.2265 7.9919 16.9919 8.21201L14.1435 10.9081Z" fill="#F6B76F"/>
</svg>
